<svg xmlns="http://www.w3.org/2000/svg" width="23.418" height="26.962" viewBox="0 0 23.418 26.962"><g transform="translate(-32.885)"><path d="M198.764,112.319c-.291-.043-.307-.054-.167-.07a4.576,4.576,0,0,1,1.31.113,5.6,5.6,0,0,1,2.862,1.919l.248.291.361-.054a7.812,7.812,0,0,1,4.452.555,6.046,6.046,0,0,1,1,.582,1.355,1.355,0,0,1,.1.388,2.382,2.382,0,0,1-.151,1.515.406.406,0,0,0-.043.447.415.415,0,0,0,.377.237c.334,0,.679-.528.846-1.267l.07-.291.124.14a5.435,5.435,0,0,1,1.348,2.668l.027.21-.124-.183a2.434,2.434,0,0,0-.668-.712,4.215,4.215,0,0,0-2.3-.485,9.488,9.488,0,0,1-2.544-.388c-1.143-.377-1.725-.862-3.072-2.657a13.119,13.119,0,0,0-1.348-1.585A4.723,4.723,0,0,0,198.764,112.319Z" transform="translate(-156.699 -106.185)" fill="#fff"/><path d="M362.467,121.334a3.029,3.029,0,0,1,.248-1.2,1.084,1.084,0,0,1,.124-.237c.016,0-.016.1-.054.21a2.628,2.628,0,0,0-.054,1.224c.1.625.14.712.809,1.391.307.318.668.722.809.889l.237.307-.237-.221a8.452,8.452,0,0,0-1.11-.879c-.1-.054-.113-.054-.183.016-.054.054-.07.14-.07.544a2.986,2.986,0,0,1-.307,1.418c-.113.21-.124.167-.027-.07a2.046,2.046,0,0,0,.081-.862c0-1.207-.14-1.5-.986-1.989-.21-.124-.571-.307-.776-.4a3.36,3.36,0,0,1-.377-.183,6.688,6.688,0,0,1,1.17.345c.485.194.571.21.625.194C362.424,121.8,362.451,121.684,362.467,121.334Z" transform="translate(-310.042 -113.437)" fill="#fff"/><path d="M198.188,127.383a4.954,4.954,0,0,1-.879-2.992l.027-.291.14.027a3.4,3.4,0,0,1,.889.334c.555.334.809.792,1.04,1.935.07.334.167.722.21.846a5.111,5.111,0,0,0,.555,1c.151.221.054.334-.291.307A2.862,2.862,0,0,1,198.188,127.383Z" transform="translate(-155.551 -117.411)" fill="#fff"/><path d="M316.825,224.729c-2.754-1.11-3.725-2.07-3.725-3.7,0-.237.016-.431.016-.431a1.713,1.713,0,0,1,.237.183c.555.447,1.18.641,2.922.889a11.72,11.72,0,0,1,2.129.447,4.06,4.06,0,0,1,2.975,3.239,5.69,5.69,0,0,1-.081,1.736,3.529,3.529,0,0,1-.447,1c-.016,0-.043-.07-.043-.183a2.257,2.257,0,0,0-.809-1.574A11.351,11.351,0,0,0,316.825,224.729Z" transform="translate(-265.111 -208.709)" fill="#fff"/><path d="M242.292,291.792a2.977,2.977,0,0,0-.14-.582l-.07-.21.124.151a2.482,2.482,0,0,1,.447.809,1.729,1.729,0,0,1,.1.776,1.817,1.817,0,0,1-.1.749,2.547,2.547,0,0,1-.582.932,3.352,3.352,0,0,1-2.086.916c-.167.016-.641.054-1.056.081a8.219,8.219,0,0,0-2.366.388.5.5,0,0,1-.183.043,3.217,3.217,0,0,1,.749-.447,7.5,7.5,0,0,1,2.086-.555,9.513,9.513,0,0,0,1.24-.248A2.394,2.394,0,0,0,242.292,291.792Z" transform="translate(-192.524 -275.315)" fill="#fff"/><path d="M363.407,305.293a3.22,3.22,0,0,1-.248-2.253c.027-.07.054-.14.081-.14a.615.615,0,0,1,.194.1c.167.113.512.307,1.407.792a7.065,7.065,0,0,1,2.21,1.628,3.47,3.47,0,0,1,.738,1.682,5.508,5.508,0,0,1-.07,1.655,4.1,4.1,0,0,1-2.016,2.668,2.485,2.485,0,0,1-.291.14,1.34,1.34,0,0,1,.124-.307,2.747,2.747,0,0,0,.124-2.156,8.971,8.971,0,0,0-1.11-2.005A12.582,12.582,0,0,1,363.407,305.293Z" transform="translate(-312.373 -286.573)" fill="#fff"/><path d="M172.291,396.062a7.623,7.623,0,0,1,3.46-1.671,5.25,5.25,0,0,1,1.795.07,3.091,3.091,0,0,1,1.752,1.127,4.193,4.193,0,0,1,.641,1.892c.054.377.124.765.14.846a1.873,1.873,0,0,0,.614,1.1,2.115,2.115,0,0,0,1.919.054,1.032,1.032,0,0,1,.237-.07,2.086,2.086,0,0,1-.6.4,1.938,1.938,0,0,1-1,.237,2,2,0,0,1-1.7-1.04,8.287,8.287,0,0,1-.458-.916,3.347,3.347,0,0,0-1.31-1.838,1.718,1.718,0,0,0-1.628-.151,1.046,1.046,0,0,0-.361,1.628,1.385,1.385,0,0,0,.792.415.849.849,0,0,0,.959-.846.66.66,0,0,0-.458-.679c-.447-.194-.933.027-.916.458a.382.382,0,0,0,.264.377c.113.054.113.054.027.043a.517.517,0,0,1-.183-.906,1,1,0,0,1,1.488.318,1.44,1.44,0,0,1,.027.943,1.3,1.3,0,0,1-1.585.749,2.245,2.245,0,0,1-1.207-.819,3.7,3.7,0,0,0-2.738-1.407l-.264-.043Z" transform="translate(-131.617 -373.089)" fill="#fff"/><path d="M33.36.6c3.24,3.935,8.231,10.053,8.484,10.387.21.28.124.544-.221.738a2.088,2.088,0,0,1-.792.221,1.027,1.027,0,0,1-.668-.291c-.124-.124-.668-.916-1.892-2.824-.933-1.461-1.725-2.668-1.736-2.684a22.974,22.974,0,0,0,1.639,3,23.9,23.9,0,0,1,1.418,2.668c0,.183-.054.28-.28.528a3.067,3.067,0,0,0-.668,1.876,5.8,5.8,0,0,1-1.585,3.2,5.761,5.761,0,0,0-.879,1.24,2.417,2.417,0,0,0-.28,1.11,3.442,3.442,0,0,0,.183,1.364,4.625,4.625,0,0,0,.668,1.31,3.3,3.3,0,0,1,.512,1.013c0,.113.027.113.528,0a5.5,5.5,0,0,0,2.727-1.337,1.253,1.253,0,0,0,.415-1.056,1.157,1.157,0,0,0-.1-.582,2.486,2.486,0,0,0-.976-.943,2.191,2.191,0,0,1-1.154-1.488,2.635,2.635,0,0,1,.431-1.671,5,5,0,0,0,.614-2.2c.043-.582.113-.819.28-1a1.038,1.038,0,0,1,.765-.318,2.559,2.559,0,0,0,1.531-.625,1.316,1.316,0,0,0,.474-1.013l.016-.318-.183-.194C41.979,9.956,32.929,0,32.886,0,32.87,0,33.1.264,33.36.6Zm4.269,19.777a.575.575,0,0,0-.183-.765c-.237-.151-.6-.081-.6.124a.143.143,0,0,0,.113.14c.124.07.14.14.043.291s-.1.291.027.388A.4.4,0,0,0,37.629,20.375Z" fill="#fff" fill-rule="evenodd"/><path d="M211.769,241.675a1.229,1.229,0,0,0-.749.819,1.207,1.207,0,0,0,.07.749c.151.194.291.248.679.248.765,0,1.418-.334,1.488-.738a1.075,1.075,0,0,0-.625-1A1.436,1.436,0,0,0,211.769,241.675Zm.889.7c.113-.167.07-.345-.14-.474-.377-.237-.943-.043-.943.318,0,.183.291.377.571.377A.789.789,0,0,0,212.658,242.371Z" transform="translate(-168.507 -228.615)" fill="#fff" fill-rule="evenodd"/></g></svg>